<svg version="1.2" xmlns="http://www.w3.org/2000/svg" viewBox="0 0 1549 501" width="1549" height="501">
	<title>Sodexo-svg</title>
	<style>
		.s0 { fill: #293896 } 
		.s1 { fill: #ed1c24 } 
	</style>
	<path id="Layer" fill-rule="evenodd" class="s0" d="m774.3 388.5c-13 60.9-49 104.2-132 104.2-81 0-118.1-50.8-102.8-116.1 16.9-72.6 81.1-103.5 154.6-103.5 23.5 0 29.8 0.7 49.8 1.4l16.5-84.1 52.2-3.3zm-178.9-8.3c-10.7 42.9 2.2 73.4 51.3 73.4 42.9 0 63.8-23.2 71.4-58l17.2-85.9c-75-8.5-124.6 9.7-139.9 70.5z"/>
	<path id="Layer" class="s0" d="m245.9 313.5c-76.6-7-142.5-0.6-143.6 25.4-1.7 39 126.2 5 123.8 76.8-3.6 105.6-181.5 81.3-225.5 67.9l8-31.4c75.9 12.1 155.9 13.1 157.7-28.8 1.9-44.5-126.6-4.5-123.6-76.6 2.3-53.6 82.6-82.6 214-63.3z"/>
	<path id="Layer" fill-rule="evenodd" class="s0" d="m510.2 385.3c-15.1 65.7-76.3 109.8-152.5 109.8-76.2 0-117.2-44.1-102.1-109.8 15.1-65.7 76.3-109.8 152.5-109.8 76.2 0 117.2 44.1 102.1 109.8zm-108.8-73.7c-41.6 0-76.9 29.6-88 73.7-11.7 46.5 7.9 71.8 51.4 71.8 41.6 0 76.6-27.7 87.6-71.8 11.1-44.1-9.4-73.7-51-73.7z"/>
	<path id="Layer" class="s0" d="m1288.3 494h-66.2c-40.1-37.8-117-124.6-173.5-216.4h48.6c53.7 74.1 191.1 216.4 191.1 216.4z"/>
	<path id="Layer" class="s0" d="m1357.7 64.1l30.5-63.5 8.7 64.6 62.1-21.8-43.4 55.7 47.1 36.5-62.9 4.9-3.4 67.2-35-49.7-51.3 47.4 19.2-66.8-60.5-8.2 58.9-33.6-24.2-57.5 54.2 24.8"/>
	<path id="Layer" fill-rule="evenodd" class="s0" d="m1545.6 386c-15.3 66.7-77.6 111.5-154.9 111.5-77.4 0-119-44.8-103.7-111.5 15.3-66.8 77.5-111.5 154.9-111.5 77.3 0 119 44.7 103.7 111.5zm-110.6-74.9c-42.2 0-78.1 30.1-89.3 74.9-11.9 47.2 8 72.8 52.2 72.8 42.3 0 77.7-28.1 89-72.8 11.2-44.8-9.6-74.9-51.9-74.9z"/>
	<path id="Layer" class="s1" d="m998.4 475.5c125.1-69.5 233.7-176.3 310.8-268.6-55.4 173.5-188.8 266.8-310.8 268.6z"/>
	<path id="Layer" fill-rule="evenodd" class="s0" d="m854.6 398c-0.2 2.8-0.4 5.5-0.4 8.3 0 69.2 79.5 76.2 144.2 69.2 0 0-34 25.1-84.8 25.1-73.8 0-114.2-40.5-114.2-89.2 0-75.4 60.9-136.2 154.7-136.2 57.8 0 83.3 23.5 83.3 55.4 0 63.6-94.5 85.8-182.8 67.4zm7.4-31.5c37.9 7.8 123.9 10.7 123.9-33.4 0-16.7-13.1-25.4-37-25.4-43.5 0-73.5 25.8-86.9 58.8z"/>
</svg>