<svg xmlns="http://www.w3.org/2000/svg" width="826.99" height="1000"><path style="fill:#db9600;fill-rule:evenodd" d="M0 1000h826.99V807.93H0V1000z"/><path style="fill:#54923c" d="M826.99 811.48H0V0h826.99v811.48z"/><path d="M733.87 736.07H549.52l-63.75-239.5h45.62c9.09.86 44.07-12.93 44-47.37-.12-31.24-28.71-30.58-38.78-31h-56.88L356.54 736.07H173.92l-123.19-336h150.75l59.45 178.33 70.64-278.25h270.05c73 0 132.25 62.29 132.25 139.12 0 52.16-27.3 97.63-67.66 121.43l67.66 175.35zM159.46 947.94v-97.4a139 139 0 0 1 25.77-2.2q19.64 0 28.56 7.33t8.94 19.77a24.75 24.75 0 0 1-5 15.4 28.21 28.21 0 0 1-13.89 9.64q10.69 4.18 14.5 20.07 6 24.24 7.91 27.39h-14.07q-2-3.45-6.59-23.44-2.34-10.39-7-14.72t-13.11-4.31h-12.4v42.47zm13.62-88v35.29h13.62q10.25 0 16.33-5a16.35 16.35 0 0 0 6.07-13.33c0-5.9-1.95-10.42-5.88-13.52s-9.59-4.64-17-4.64a56 56 0 0 0-13.18 1.18zm126.83 55.36H248.5q.3 11.49 7.1 17.6t17.65 6.1a53.78 53.78 0 0 0 20.65-3.66l2.35 9.52q-10.49 4.7-24.75 4.69-16.56 0-26.37-9.81t-9.81-26.07q0-16.26 9.42-27.25t25.29-11q14.66 0 22.48 9.76t7.84 23.93a32.74 32.74 0 0 1-.44 6.15zm-51.26-9.81h38.52q0-9.16-4.72-14.77c-3.14-3.74-7.64-5.6-13.44-5.6a18.24 18.24 0 0 0-13.7 5.6q-5.42 5.59-6.66 14.77zm82.9 42.47h-13.63v-60.51H308v-10.4h10v-3.22q0-15.17 6.94-23.49t19.28-8.3a29.7 29.7 0 0 1 11.28 2.06l-1.61 10.54a21.06 21.06 0 0 0-8.5-1.61q-13.92 0-13.91 20.36v3.66h17.43v10.4h-17.36v60.49zm86.84-32.66H367q.3 11.49 7.11 17.6t17.63 6.1a53.81 53.81 0 0 0 20.65-3.66l2.34 9.52q-10.47 4.7-24.75 4.69-16.56 0-26.36-9.81t-9.82-26.07q0-16.26 9.43-27.25t25.28-11q14.65 0 22.49 9.76t7.83 23.93a31.9 31.9 0 0 1-.44 6.15zm-51.26-9.81h38.52q0-9.16-4.71-14.77t-13.45-5.6a18.21 18.21 0 0 0-13.69 5.6q-5.43 5.59-6.67 14.77zm81.72 42.47h-13.61v-70.91h13.61v70.89zm1.91-92.42a8.4 8.4 0 0 1-8.79 8.64 8.32 8.32 0 0 1-6.23-2.49 8.49 8.49 0 0 1-2.41-6.15 8.25 8.25 0 0 1 2.46-6 8.54 8.54 0 0 1 6.33-2.44 8.4 8.4 0 0 1 6.2 2.44 8.2 8.2 0 0 1 2.44 6zm70.15 79.53 2.49 10.25a49.51 49.51 0 0 1-19.91 4.1l-3.49 5.7a12.67 12.67 0 0 1 7.45 3.46 9.09 9.09 0 0 1 2.81 6.64 10.4 10.4 0 0 1-4.18 8.88q-4.17 3.12-11.5 3.13a18.75 18.75 0 0 1-10.1-2.64l2.19-6.44a14.92 14.92 0 0 0 7.91 2.2q6.45 0 6.45-4.55 0-5-11.57-6l6.12-10.8q-14.22-1.9-22.27-11.72t-8.05-24q0-16.63 10.91-27.22t28.63-10.57a41.75 41.75 0 0 1 18.6 3.95l-2.92 10.4a33.5 33.5 0 0 0-15.68-3.51q-11.64 0-18.62 7.34t-7 18.87q0 11.71 7.11 18.9t18.23 7.18a39.64 39.64 0 0 0 16.4-3.52zm69.72-30V931a98.91 98.91 0 0 0 1.17 17h-12.45l-1.61-9.09q-8 10.7-22.41 10.7-10.1 0-16.18-6a19.39 19.39 0 0 1-6.08-14.38q0-12.88 11.2-19.7t32.73-6.85v-1.32c0-5-1.37-9-4.13-11.76s-6.86-4.2-12.28-4.2a35.13 35.13 0 0 0-19.33 5.42l-3.07-8.94q10.24-6.43 24.45-6.44 13.85 0 20.93 7.61t7 22zm-13.33 18.7v-11.72q-17.13 0-23.8 4.1t-6.66 11.28c0 3.76 1.12 6.69 3.34 8.82a12.22 12.22 0 0 0 8.81 3.19 18.66 18.66 0 0 0 13-4.81q5.26-4.78 5.27-10.86zm-24.9-58.14h-6.88q0-7 2.54-11a8 8 0 0 1 7.13-4q3.28 0 9.52 3.37c2.93 1.66 5.17 2.48 6.73 2.48 2.3 0 3.57-2.09 3.81-6.29H582q0 14.5-10 14.5-3.59 0-9.23-3.22c-2.93-1.66-5.12-2.49-6.59-2.49-2.2 0-3.46 2.19-3.81 6.59zm126.4 46.13a40.51 40.51 0 0 1-4.76 20 32.6 32.6 0 0 1-13.33 13.18 38.39 38.39 0 0 1-18.52 4.62q-15.53 0-25.64-10.16t-10.1-26.31q0-17.22 10.45-27.44t26.31-10.2q15.81 0 25.7 10.13t9.89 26.19zm-58.43.88q0 11.64 6.22 19.21a19.4 19.4 0 0 0 15.6 7.59 20.11 20.11 0 0 0 16-7.61q6.4-7.62 6.39-19.63 0-11.06-5.88-18.87t-16.08-7.79q-10.33 0-16.29 7.72t-6 19.38z" style="fill:#fff"/></svg>